<svg xmlns="http://www.w3.org/2000/svg" viewBox="0 0 50 50"><path d="M25 0a.833.833 0 0 0-.832.832v5c0 .461.371.836.832.836.46 0 .832-.375.832-.836v-5A.833.833 0 0 0 25 0Zm0 43.332a.834.834 0 0 0-.832.836v5a.833.833 0 0 0 1.664 0v-5a.834.834 0 0 0-.832-.836Zm24.168-19.164h-5a.834.834 0 0 0-.836.832c0 .46.375.832.836.832h5a.833.833 0 0 0 0-1.664ZM6.668 25a.834.834 0 0 0-.836-.832h-5a.833.833 0 0 0 0 1.664h5c.461 0 .836-.371.836-.832Zm31.887-12.719c.218 0 .433-.09.586-.246l4.78-4.781a.832.832 0 0 0-1.175-1.176l-4.781 4.781a.83.83 0 0 0 .59 1.422ZM10.859 37.965l-4.78 4.781a.832.832 0 0 0 1.175 1.176l4.781-4.781a.832.832 0 0 0-1.176-1.176Zm28.282 0a.832.832 0 0 0-1.176 1.176l4.781 4.78a.825.825 0 0 0 1.176 0 .825.825 0 0 0 0-1.176ZM7.254 6.078a.832.832 0 0 0-1.176 1.176l4.781 4.781a.825.825 0 0 0 1.176 0 .825.825 0 0 0 0-1.176Zm34.621 11.758a.832.832 0 0 0 1.094.441l2.3-.976a.834.834 0 0 0-.648-1.535l-2.305.98a.832.832 0 0 0-.441 1.09ZM8.125 32.164a.832.832 0 0 0-1.094-.441l-2.3.976a.834.834 0 0 0 .648 1.535l2.305-.98a.832.832 0 0 0 .441-1.09Zm37.277.18-2.32-.938a.832.832 0 0 0-1.082.461.83.83 0 0 0 .46 1.086l2.317.938a.826.826 0 0 0 .84-.106.835.835 0 0 0-.215-1.441ZM4.598 17.656l2.32.938A.832.832 0 0 0 8 18.133a.83.83 0 0 0-.46-1.086l-2.317-.938a.835.835 0 0 0-.625 1.547Zm28.656 24.66a.83.83 0 0 0-1.074-.406.835.835 0 0 0-.457 1.059l.976 2.3a.832.832 0 0 0 1.09.442.83.83 0 0 0 .445-1.09ZM17.512 8.191a.833.833 0 0 0 .765-1.16l-.976-2.3a.834.834 0 0 0-1.535.648l.98 2.305c.129.308.43.507.766.507ZM18.132 42a.833.833 0 0 0-1.085.46l-.938 2.317a.835.835 0 0 0 1.547.625l.938-2.32A.832.832 0 0 0 18.133 42ZM32.18 8.062c.34 0 .644-.207.773-.523l.938-2.316a.835.835 0 0 0-1.547-.625l-.938 2.32a.835.835 0 0 0 .774 1.144Zm0 0" style="stroke:none;fill-rule:nonzero;fill:#f0c419;fill-opacity:1"/><path d="M41.668 25c0 9.203-7.465 16.668-16.668 16.668S8.332 34.203 8.332 25 15.797 8.332 25 8.332 41.668 15.797 41.668 25Zm0 0" style="stroke:none;fill-rule:nonzero;fill:#f0c419;fill-opacity:1"/><path d="M37.5 25c0 6.902-5.598 12.5-12.5 12.5S12.5 31.902 12.5 25 18.098 12.5 25 12.5 37.5 18.098 37.5 25Zm0 0" style="stroke:none;fill-rule:nonzero;fill:#ede21b;fill-opacity:1"/></svg>