<svg xmlns="http://www.w3.org/2000/svg" viewBox="0 0 50 50"><path d="M14.695 37.574c12.637 0 22.875-10.242 22.875-22.879A22.784 22.784 0 0 0 32.22 0C42.53 3.313 50 12.973 50 24.383 50 38.53 38.531 50 24.383 50 12.969 50 3.313 42.531 0 32.219a22.774 22.774 0 0 0 14.695 5.355Zm0 0" style="stroke:none;fill-rule:nonzero;fill:#ffd93b;fill-opacity:1"/><path d="M40.215 4.281c3.426 4.352 5.484 9.832 5.484 15.805 0 14.144-11.465 25.613-25.613 25.613-5.973 0-11.453-2.058-15.805-5.484C8.97 46.165 16.223 50 24.387 50 38.53 50 50 38.531 50 24.383c0-8.16-3.836-15.414-9.785-20.102Zm0 0" style="stroke:none;fill-rule:nonzero;fill:#f4c534;fill-opacity:1"/><path d="m12.82 10 2.637 5.348 5.902.859-4.27 4.16 1.009 5.88-5.278-2.778-5.277 2.777 1.008-5.879-4.274-4.16 5.903-.86ZM27.703 8.29l1.367 2.773 3.059.44-2.215 2.161.523 3.043-2.734-1.437-2.738 1.437.523-3.043-2.21-2.16 3.058-.441Zm0 0" style="stroke:none;fill-rule:nonzero;fill:#ffd83b;fill-opacity:1"/></svg>