<svg xmlns="http://www.w3.org/2000/svg" class="controllersupportinfo_SmallerSVG_BOCK_" viewBox="0 0 36 36"><path fill="currentColor" d="M12.9 13.7c-.6 0-1.1-.5-1.1-1.1V8h-1.7l-.5-.5h-.2c-.1-.2-.2-.4-.4-.6-2.3-.4-3.8.2-4.3.5-.1 0-.1.1-.2.1-.6.5-1.7 2.8-1.7 2.8C2.2 12 .6 17 0 23.8c0 0-.6 5.1 3.4 5.6 3.5.4 4.6-4.1 5.2-6.5.2-.7.3-1.2.4-1.4.3-.3.7-.5.9-.5.6.7 1.5 1.1 2.5 1.1s1.9-.4 2.5-1.1H18v-7.3h-5.1zm-7.3-2.9c0-.3.2-.5.5-.5h1.2c.3 0 .5.2.5.5v1c0 .1-.1.3-.1.4l-.6.6c-.2.2-.5.2-.7 0l-.6-.6c-.1-.1-.1-.2-.1-.4v-1zm-.5 3.7h-1c-.3 0-.5-.2-.5-.5v-1.2c0-.3.2-.5.5-.5h1c.1 0 .3.1.4.1l.6.6c.2.2.2.5 0 .7l-.6.6c-.1.1-.2.2-.4.2zM7.9 16c0 .3-.2.5-.5.5H6.1c-.3 0-.5-.2-.5-.5v-1c0-.1.1-.3.1-.4l.7-.6c.2-.2.5-.2.7 0l.6.6c.1.1.1.2.1.4v1zm1.9-2c0 .3-.2.5-.5.5h-1c-.1 0-.3-.1-.4-.1l-.6-.6c-.2-.2-.2-.5 0-.7l.7-.7c.1-.1.2-.1.4-.1h1c.3 0 .5.2.5.5V14zm2.3 6.4c-1.2 0-2.2-1-2.2-2.2 0-1.2 1-2.2 2.2-2.2 1.2 0 2.2 1 2.2 2.2.1 1.2-.9 2.2-2.2 2.2z" opacity=".5"/><path fill="currentColor" d="M36 23.8c-.6-6.8-2.2-11.8-2.8-13.5 0 0-1.1-2.2-1.7-2.8 0 0-.1-.1-.2-.1-.5-.3-2-.9-4.3-.5-.2.2-.3.4-.4.5h-.2l-.5.6h-1.7v4.5c0 .6-.5 1.1-1.1 1.1H18V21h3.1c.6.7 1.5 1.1 2.5 1.1s1.9-.4 2.5-1.1c.2.1.6.2.9.5.1.1.3.7.4 1.4.6 2.4 1.7 6.9 5.2 6.5 4-.6 3.4-5.6 3.4-5.6zm-12.4-3.4c-1.2 0-2.2-1-2.2-2.2 0-1.2 1-2.2 2.2-2.2 1.2 0 2.2 1 2.2 2.2.1 1.2-.9 2.2-2.2 2.2zm3.1-5.9c-.6 0-1.1-.5-1.1-1.1 0-.6.5-1.1 1.1-1.1.6 0 1.1.5 1.1 1.1 0 .6-.5 1.1-1.1 1.1zm2.5 2.5c-.6 0-1.1-.5-1.1-1.1 0-.6.5-1.1 1.1-1.1.6 0 1.1.5 1.1 1.1.1.6-.4 1.1-1.1 1.1zm0-5c-.6 0-1.1-.5-1.1-1.1 0-.6.5-1.1 1.1-1.1.6 0 1.1.5 1.1 1.1.1.6-.4 1.1-1.1 1.1zm2.6 2.5c-.6 0-1.1-.5-1.1-1.1 0-.6.5-1.1 1.1-1.1.6 0 1.1.5 1.1 1.1 0 .6-.5 1.1-1.1 1.1z"/><path fill="currentColor" d="M12.9 8H18v4.5h-5.1z" opacity=".5"/><path fill="currentColor" d="M18 8h5.1v4.5H18z"/></svg>