<svg xmlns="http://www.w3.org/2000/svg" class="controllersupportinfo_SmallerSVG_BOCK_" viewBox="0 0 36 36"><path fill="currentColor" d="M12.9 6.2c-.2 0-.4-.1-.5-.2-.2-.2-.5-.4-1.2-.4-1.1 0-4.5 1.1-5.1 1.7s-.5 1.1-.5 1.1v.1c-.4.3-.8.7-1.1 1C3.4 10.7 0 20.2 0 25.3s3.4 5.6 3.4 5.6c.9 0 2.3-1.8 3.7-3.5 1.2-1.5 2.3-3 3.1-3.2.8-.3 4.4-.4 7.9-.4V6.2h-5.2zm-4.5 8.4c-1.2 0-2.2-1-2.2-2.2s1-2.2 2.2-2.2 2.2 1 2.2 2.2-.9 2.2-2.2 2.2zm7.4 4.2c0 .3-.3.6-.6.6h-.8v.8c0 .3-.3.6-.6.6h-1.1c-.3 0-.6-.3-.6-.6v-.8h-.8c-.3 0-.6-.3-.6-.6v-1.1c0-.3.3-.6.6-.6h.8v-.8c0-.3.3-.6.6-.6h1.1c.3 0 .6.3.6.6v.8h.8c.3 0 .6.3.6.6v1.1z" opacity=".5"/><path fill="currentColor" d="M31.5 9.6c-.3-.3-.7-.6-1.1-1v-.2s0-.6-.6-1.1-3.9-1.7-5.1-1.7c-.7 0-.9.2-1.2.4-.2.1-.3.2-.5.2h-5v17.6c3.5 0 7 .1 7.9.4.8.3 1.9 1.7 3.1 3.2 1.4 1.7 2.8 3.5 3.7 3.5 0 0 3.4-.6 3.4-5.6s-3.5-14.6-4.6-15.7zm-3.9-.9c.8 0 1.4.6 1.4 1.4s-.6 1.4-1.4 1.4-1.4-.6-1.4-1.4.6-1.4 1.4-1.4zm-4.5 11.5c-1.2 0-2.2-1-2.2-2.2s1-2.2 2.2-2.2 2.2 1 2.2 2.2-1 2.2-2.2 2.2zm1.9-6.1c-.8 0-1.4-.6-1.4-1.4 0-.8.6-1.4 1.4-1.4.8 0 1.4.6 1.4 1.4 0 .7-.6 1.4-1.4 1.4zm2.6 2.5c-.8 0-1.4-.6-1.4-1.4s.6-1.4 1.4-1.4 1.4.6 1.4 1.4-.7 1.4-1.4 1.4zm2.5-2.5c-.8 0-1.4-.6-1.4-1.4 0-.8.6-1.4 1.4-1.4.8 0 1.4.6 1.4 1.4 0 .7-.6 1.4-1.4 1.4z"/></svg>